<?xml version="1.0" encoding="UTF-8"?>
<svg id="SERVIR_logo" xmlns="http://www.w3.org/2000/svg" viewBox="0 0 488.2 98.18"><defs><style>.cls-1{fill:#92b03e;}.cls-2{fill:#6e6f71;}.cls-3{fill:#6e6f72;}.cls-4{fill:#6d6e71;}.cls-5{fill:#2581b1;}</style></defs><g id="Paths"><g id="Text"><path class="cls-3" d="M381.21,89.33c-6.45,0-12.68,0-18.91,.01-.61,0-.83-.38-1.1-.77-4.92-7.02-9.83-14.05-14.75-21.07-2.88-4.12-5.76-8.24-8.66-12.34-.43-.61-.66-1.22-.64-1.99,.05-1.51,.07-3.03,0-4.55-.04-.93,.23-1.29,1.2-1.46,3.86-.66,7.65-1.64,11.21-3.31,3.19-1.5,6.05-3.43,7.89-6.55,1.77-3,2.17-6.22,1.33-9.57-.82-3.29-3.56-5.45-7.49-5.63-7.27-.33-14.55-.07-21.82-.14-.56,0-.82,.19-.77,.76,.03,.32,0,.64,0,.96,0,21.38-.01,42.75,.03,64.13,0,1.18-.32,1.45-1.46,1.43-4.24-.07-8.47-.05-12.71,0-.87,0-1.17-.2-1.17-1.12,.02-26.08,.02-52.16,0-78.25,0-.92,.3-1.13,1.17-1.12,12.07,.03,24.14-.02,36.22,.04,4.45,.02,8.85,.56,12.99,2.35,6.22,2.68,9.57,7.54,10.71,14.1,1.76,10.19-2.14,17.96-10.16,24.02-2.4,1.81-4.93,3.39-7.62,4.73-.84,.42-.96,.71-.37,1.5,8.01,10.84,15.99,21.72,23.97,32.58,.26,.35,.5,.71,.89,1.26Z"/><path class="cls-2" d="M202.71,89.33c-6.48,0-12.67-.01-18.86,.02-.8,0-.99-.56-1.31-1.02-7.19-10.25-14.3-20.56-21.59-30.74-1.66-2.32-2.55-4.6-2.33-7.46,.21-2.64,.05-2.63,2.69-3.2,5.02-1.08,9.93-2.47,14.09-5.67,3.43-2.64,5.3-6.09,5.29-10.48-.01-5.28-2.99-8.49-8.28-8.68-4.27-.15-8.55-.08-12.83-.1-2.6-.01-5.2-.01-7.79,0-1.8,0-1.55-.18-1.56,1.5-.01,5.86,0,11.73,0,17.59,0,15.55-.01,31.11,.03,46.66,0,1.14-.18,1.56-1.47,1.53-4.19-.1-8.39-.08-12.59,0-1.09,.02-1.31-.32-1.31-1.35,.03-25.96,.03-51.93,0-77.89,0-.99,.27-1.27,1.27-1.27,11.95,.03,23.9,0,35.86,.04,3.92,.02,7.8,.43,11.56,1.71,7.32,2.49,11.3,7.65,12.48,15.18,1.59,10.08-2.41,17.69-10.3,23.64-2.36,1.78-4.86,3.35-7.52,4.66-.82,.4-1.01,.68-.4,1.51,7.96,10.78,15.89,21.59,23.83,32.39,.3,.41,.59,.82,1.05,1.46Z"/><path class="cls-4" d="M32.25,55.62c-5.52-.09-9.8,.18-14.05-.5-5.26-.84-10.04-2.61-13.59-6.83-2.72-3.23-3.95-7.06-4.38-11.18-.48-4.64-.32-9.24,1.42-13.66,2.42-6.14,7.14-9.82,13.12-12.12,4.32-1.66,8.83-2.46,13.42-2.82,10.69-.83,21.21,.14,31.5,3.25,.95,.29,1.32,.66,1.3,1.71-.07,3.75-.05,7.5-.02,11.25,0,.8-.12,1.04-.98,.73-9.33-3.36-18.97-4.61-28.85-4.05-3.72,.21-7.37,.86-10.73,2.62-5.58,2.91-6.43,8.99-4.55,13.46,1.36,3.25,4.26,4.35,7.48,4.44,5.35,.15,10.71,.02,16.07,.09,4.25,.05,8.44,.54,12.47,1.99,6.99,2.52,11.19,7.41,12.5,14.72,.82,4.57,.77,9.13-.42,13.63-1.98,7.54-7.03,12.2-14.18,14.83-4.96,1.82-10.13,2.52-15.39,2.66-9.8,.27-19.46-.6-28.91-3.34-1.26-.36-1.65-.89-1.61-2.18,.1-3.59,.07-7.18,.01-10.77-.02-1.05,.27-1.08,1.14-.78,9.28,3.24,18.86,4.38,28.64,4.08,3.56-.11,7.06-.68,10.32-2.29,5.69-2.8,6.8-8.91,5.41-13.3-1.13-3.58-4.07-4.91-7.51-5.41-3.62-.53-7.26-.08-9.65-.21Z"/><path class="cls-3" d="M72.07,49.11c0-13,.01-26-.02-39.01,0-1.03,.22-1.35,1.31-1.35,16.83,.04,33.66,.03,50.49,0,1,0,1.28,.27,1.26,1.26-.06,3.51-.06,7.02,0,10.53,.02,1.03-.32,1.23-1.29,1.23-11.79-.03-23.58,0-35.38-.05-1.18,0-1.55,.24-1.53,1.49,.08,5.82,.06,11.65,0,17.47,0,1.02,.31,1.25,1.28,1.24,11.15-.03,22.31-.02,33.46-.02,1.72,0,1.49-.22,1.5,1.55,.01,3.43,.01,6.86,0,10.29,0,1.75,.19,1.55-1.5,1.56-11.15,0-22.31,.02-33.46-.02-1.04,0-1.43,.2-1.42,1.35,.06,6.14,.05,12.28,0,18.43,0,1.05,.26,1.33,1.32,1.33,12.15-.04,24.3,0,36.46-.05,1.13,0,1.39,.33,1.37,1.4-.07,3.47-.05,6.94,0,10.41,.01,.92-.21,1.21-1.18,1.2-17.15-.03-34.3-.03-51.45,0-.98,0-1.26-.24-1.26-1.24,.04-13,.02-26,.02-39.01Z"/><path class="cls-4" d="M237.59,70.32c1.91-4.7,3.68-9.09,5.46-13.48,6.33-15.65,12.66-31.29,18.97-46.95,.33-.82,.73-1.14,1.65-1.13,5.04,.05,10.07,.02,15.11,.02q1.4,0,.85,1.25c-8.07,18.37-16.15,36.74-24.22,55.11-3.4,7.73-6.81,15.45-10.16,23.19-.35,.8-.76,1.03-1.59,1.02-4.64-.04-9.27-.04-13.91,0-.78,0-1.21-.18-1.53-.94-10.98-26.17-21.97-52.34-33-78.5-.42-.99-.23-1.16,.78-1.15,5.16,.04,10.31,.04,15.47,0,.93,0,1.29,.34,1.62,1.15,7.73,19.12,15.48,38.22,23.23,57.33,.37,.91,.75,1.82,1.26,3.08Z"/><path class="cls-3" d="M286.23,49.07c0-13,.01-26-.03-39,0-1.06,.26-1.33,1.32-1.31,4.2,.06,8.39,.05,12.59,0,.89,0,1.16,.23,1.16,1.14-.02,26.12-.02,52.24,0,78.36,0,.94-.3,1.11-1.16,1.1-4.24-.04-8.47-.05-12.71,0-.92,.01-1.19-.21-1.19-1.17,.03-13.04,.02-26.08,.02-39.12Z"/></g><g id="Globe"><path class="cls-1" d="M454.99,29.02c-5.92-.38-10.93-2.55-14.31-7.62-1.91-2.87-2.48-5.97-.46-9.08,1.18-1.83,3-2.82,5.07-3.36,6.46-1.69,14.81,1.81,18.15,7.59,3.15,5.46,.53,11.1-5.68,12.2-.9,.16-1.81,.34-2.76,.28Z"/><path class="cls-5" d="M425.66,55.95c-.13,.25-.27,.49-.4,.73-1.41,2.54-2.77,5.12-4.25,7.62-2.21,3.74-1.05,6.85,1.54,9.51,.71,.73,.92,2.23,.38,3.06-.32,.5-.65,.07-.9-.06-4.64-2.36-8.99-5.16-12.94-8.57-2.48-2.14-4.81-4.44-6.93-6.94-.5-.59-.59-1.04-.18-1.77,2.94-5.21,6.61-9.86,10.61-14.28,.51-.56,.78-.52,1.26,.06,3.16,3.86,6.9,7.07,11.04,9.84,.3,.2,.76,.31,.77,.82Z"/><path class="cls-1" d="M441.19,83.22c-4.49-.8-8.79-1.97-12.95-3.62-.6-.24-.53-.6-.43-1.04,.29-1.36,.57-2.72,.89-4.08,.14-.6,.02-.99-.51-1.42-2.01-1.62-2.25-2.76-1.16-5.08,1.31-2.77,2.65-5.53,3.93-8.31,.3-.65,.56-.78,1.24-.46,4.52,2.14,9.24,3.72,14.17,4.6,.8,.14,.94,.47,.76,1.2-1.42,5.88-3.01,11.7-5.12,17.38-.15,.4-.13,1.05-.81,.83Z"/><path class="cls-1" d="M448.85,84.02c1.19-3.52,2.18-7,2.97-10.53,.56-2.53,1.08-5.06,1.43-7.63,.12-.88,.41-1.25,1.42-1.21,4.5,.18,8.93-.36,13.25-1.67,.8-.24,1.6-.51,2.37-.83,.6-.24,.79-.04,.82,.54,.17,2.9,.4,5.82,0,8.71-.28,2.03-1.6,3.36-3.54,3.98-.66,.21-.98,.55-1.2,1.15-.65,1.75-1.37,3.48-2.01,5.24-.24,.64-.65,.94-1.29,1.06-4.63,.94-9.3,1.46-14.22,1.18Z"/><path class="cls-5" d="M421.48,94.19c-1.42-.41-2.62-1.03-3.82-1.62-6.83-3.37-12.94-7.68-18.06-13.38-1.45-1.62-2.02-3.36-2.04-5.41-.03-2.86,.66-5.57,1.67-8.33,5.84,6.84,12.66,12.22,20.43,16.42,2.14,1.16,2.13,1.15,1.89,3.64-.27,2.85-.5,5.7-.07,8.69Z"/><path class="cls-1" d="M456.89,57.95c-2.62,.01-2.53,.02-2.35-2.59,.44-6.11,.79-12.23,.39-18.36-.06-.9,.05-1.36,1.17-1.34,2.12,.05,4.22-.28,6.21-1.05,.62-.24,.88-.1,1.16,.49,2.88,6.11,4.99,12.47,6.42,19.06,.2,.9,0,1.34-.92,1.66-3.91,1.37-7.95,2.01-12.08,2.12Z"/><path class="cls-5" d="M441.4,31.48c-.11,.15-.24,.35-.37,.54-3.89,5.55-7.65,11.18-11.16,16.98-.41,.67-.73,.74-1.38,.3-3.64-2.49-6.97-5.33-9.83-8.7-.43-.51-.66-.84,0-1.44,5.11-4.66,10.56-8.88,16.38-12.63,.42-.27,.68-.38,1.08,.1,1.38,1.67,3.02,3.06,4.8,4.29,.19,.13,.44,.2,.48,.55Z"/><path class="cls-1" d="M451.72,36.3c-.64,6.84-1.57,13.5-2.79,20.12-.13,.72-.33,.86-1.08,.72-4.3-.81-8.4-2.18-12.39-3.93-.93-.41-1.01-.76-.55-1.65,3.01-5.84,5.96-11.7,8.89-17.58,.4-.81,.76-1.02,1.62-.6,1.68,.83,3.48,1.39,5.33,1.73,.85,.15,1.2,.49,.98,1.19Z"/><path class="cls-5" d="M397.57,54.6c-1.36-2.15-2.3-4.33-3.12-6.56-.95-2.59-1.56-5.26-1.83-8.01-.05-.52,.08-.92,.34-1.34,3.03-4.77,7.13-8.45,11.81-11.54,.64-.42,.79-.21,.86,.44,.44,4.06,1.85,7.8,3.8,11.36,.21,.37,.47,.68-.01,1.13-4.57,4.26-8.6,8.96-11.84,14.53Z"/><path class="cls-5" d="M431.27,17.7c.35-.11,.71-.06,.79,.64,.18,1.6,.72,3.1,1.49,4.51,.33,.61,.21,.87-.4,1.16-6.24,3-12.12,6.6-17.58,10.85-.56,.44-.75,.26-1.03-.25-1.67-3.07-2.8-6.32-3.32-9.78-.13-.86,.05-1.34,.93-1.73,6.06-2.68,12.37-4.44,19.12-5.41Z"/><path class="cls-5" d="M484.24,50.31c1.72,5.56,2.25,10.91,.67,16.25-.82,2.77-2.76,5-4.79,7.06-3.28,3.33-7.1,5.87-11.69,7.72,.4-1.21,.47-2.26,1.66-2.83,1.29-.62,2.46-1.47,3.5-2.47,1.8-1.73,2.85-3.76,2.87-6.33,.03-3.03,.04-6.05-.47-9.05-.16-.94,.11-1.48,.92-2.04,3.03-2.09,5.44-4.77,7.33-8.31Z"/><path class="cls-5" d="M469.67,29c.14,.12,.33,.27,.5,.43,4.61,4.25,8.51,9.05,11.46,14.6,.24,.45,.32,.83,.05,1.32-1.61,2.97-3.84,5.36-6.59,7.3-.5,.35-.68,.29-.86-.33-1.85-6.59-4.68-12.76-8.25-18.59-.32-.51-.31-.77,.21-1.13,1.16-.8,2.09-1.83,2.85-3.03,.14-.22,.2-.54,.62-.56Z"/><path class="cls-5" d="M434.03,10.01c-.98,1.49-1.67,2.92-1.94,4.51-.09,.56-.4,.59-.83,.6-6.58,.28-12.98,1.47-19.17,3.76-.77,.28-.86,.07-.73-.67,.53-3.04,1.76-5.76,3.56-8.26,.34-.47,.76-.67,1.29-.75,5.95-.96,11.83-.62,17.81,.81Z"/><path class="cls-1" d="M440.07,98.17c3.03-2.42,4.88-5.4,6.42-8.6,.13-.26,.26-.47,.61-.46,4.64,.23,9.21-.46,13.94-1.21-1.37,2.69-2.81,5.15-4.43,7.51-.14,.2-.33,.32-.57,.4-5.07,1.86-10.32,2.49-15.98,2.36Z"/><path class="cls-1" d="M425.5,93.38c.29-2.61,.58-5.22,.86-7.83,.07-.65,.32-.75,.93-.52,3.74,1.4,7.57,2.49,11.52,3.13,.59,.1,.72,.31,.44,.87-1.27,2.58-2.64,5.09-4.55,7.27-.72,.83-1.45,1.34-2.68,.96-1.67-.51-3.39-.9-5.11-1.21-1.2-.22-1.65-.77-1.37-1.95,.05-.23,0-.48,0-.72h-.05Z"/><path class="cls-5" d="M483.42,40.53c-3.42-5.56-7.64-9.92-12.57-13.63-.31-.24-.5-.48-.42-.9,.33-1.62,.25-3.25-.07-4.77,.12-.3,.26-.27,.42-.21,3.69,1.41,7.03,3.39,10,6,1.73,1.52,2.77,3.29,2.95,5.63,.2,2.54,.33,5.05-.32,7.87Z"/><path class="cls-5" d="M392.81,32.36c2.48-9.69,8.05-17.02,17.22-21.6-.21,.33-.41,.68-.64,1-1.97,2.82-3.19,5.94-3.69,9.34-.07,.47-.21,.79-.64,1.04-4.64,2.61-8.66,5.94-11.77,10.31-.04,.05-.13,.07-.19,.1l-.28-.18Z"/><path class="cls-5" d="M418.92,5.97c1.77-1.45,3.56-2.39,5.39-3.25,6.65-3.12,10.79-2.18,17.31,2.57-2.05,.63-3.9,1.48-5.58,2.68-.4,.29-.84-.05-1.25-.18-5.07-1.61-10.25-2.38-15.88-1.82Z"/><path class="cls-5" d="M393.69,70.05c-3.51-7.9-5.75-15.96-3.85-24.89,.62,.68,.48,1.3,.57,1.84,.77,4.15,2.24,8.03,4.31,11.7,.36,.65,.45,1.18,.19,1.89-1.02,2.8-1.45,5.7-1.22,8.68,.02,.26,0,.52,0,.78Z"/><path class="cls-5" d="M480.53,23.51c-1.56-.92-2.92-2.15-4.57-2.96-1.9-.94-3.86-1.7-5.9-2.25-.34-.09-.72-.09-.91-.48-.99-2.06-2.39-3.82-4.11-5.63,3.08-.44,5.83-.7,8.17,1.7,2.45,2.52,4.77,5.12,6.57,8.15,.28,.47,.66,.9,.72,1.48l.02-.02Z"/><path class="cls-5" d="M438.37,.13c2.36-.28,4.67-.07,6.97,.24,1.5,.21,2.98,.52,4.46,.84,1.34,.29,2.69,2.48,2.42,3.78-.1,.48-.4,.29-.63,.24-2.04-.43-4.11-.53-6.18-.47-.33,.01-.62,.02-.87-.25-1.77-1.84-3.8-3.33-6.16-4.39Z"/><path class="cls-5" d="M463.04,92.46c.83-1.93,2.21-3.55,3.13-5.44,.07-.15,.31-.24,.48-.33,3.94-2.04,7.6-4.51,11-7.36,.11-.09,.25-.16,.51-.32-.11,.86-.69,1.26-1.09,1.76-3.72,4.6-8.15,8.37-13.28,11.33-.24,.14-.5,.23-.76,.34h.02Z"/><path class="cls-5" d="M455.89,3.04c3.9,1.41,7.5,3.28,11.11,5.79-1.59,.09-2.82,.45-3.98,1.01-.42,.2-.73,.09-1.09-.16-1.8-1.26-3.71-2.31-5.77-3.08-.52-.19-.67-.44-.59-.97,.13-.82,.21-1.65,.33-2.59Z"/><path class="cls-5" d="M480.51,23.53l.17,.1c-.19,.13-.14-.03-.15-.12l-.02,.02Z"/><polygon class="cls-5" points="463.02 92.45 462.96 92.49 463.04 92.46 463.02 92.45"/><path class="cls-5" d="M488.16,53.08c-.08,.41-.11,.84-.24,1.26-.23-2.77-.85-5.44-1.77-8.05-.1-.29-.15-.64-.09-.93,.45-2.18,.77-4.36,.46-6.59-.03-.2-.12-.49,.26-.6,.36,.24,.34,.67,.41,1.03,.51,2.53,.9,5.08,1,7.67"/></g></g></svg>